<svg id="Capa_1" data-name="Capa 1" xmlns="http://www.w3.org/2000/svg" viewBox="0 0 486.39 486.39"><title>google-plus_blanc</title><path d="M395.19,0H91.2A91.19,91.19,0,0,0,0,91.2v304a91.19,91.19,0,0,0,91.2,91.2h304a91.19,91.19,0,0,0,91.2-91.2V91.2A91.19,91.19,0,0,0,395.19,0ZM175.34,406.84c-53.84,0-99.25-21.92-99.25-56.94,0-35.54,41.43-69.86,95.27-69.83l16.81-.15C180.82,272.77,175,264,175,253.14A39.66,39.66,0,0,1,179.91,235l-9,.3c-44.23,0-73.84-31.46-73.84-70.47,0-38.15,40.89-71.07,84.36-71.07h97l-21.77,15.69H225.93c20.4,7.84,31.25,31.62,31.25,56,0,20.46-11.34,38.09-27.36,50.62-15.66,12.25-18.6,17.36-18.6,27.76,0,8.88,16.78,24,25.54,30.19,25.63,18.12,33.86,34.93,33.86,63C270.62,372,236.72,406.84,175.34,406.84ZM425.59,213.37h-60.8v60.71H334.42V213.37H273.6v-31h60.83V121.6h30.37v60.8h60.8Z" style="fill:#fff"/><path d="M222.34,167.35c-4.32-32.77-28.06-59.1-53-59.86s-41.71,24.35-37.39,57.18,28.06,60,53,60.74S226.69,200.18,222.34,167.35Z" style="fill:#fff"/><path d="M205.77,293a81.42,81.42,0,0,0-24.14-3.89c-37.21-.39-70.53,22.68-70.53,50.43,0,28.33,26.87,51.86,64.08,51.86,52.32,0,70.53-22.13,70.53-50.4a45.64,45.64,0,0,0-1.19-10C240.46,315,226,307,205.77,293Z" style="fill:#fff"/></svg>