<?xml version="1.0" encoding="utf-8"?>
<!-- Generator: Adobe Illustrator 20.1.0, SVG Export Plug-In . SVG Version: 6.00 Build 0)  -->
<svg version="1.1" id="Capa_1" xmlns="http://www.w3.org/2000/svg" xmlns:xlink="http://www.w3.org/1999/xlink" x="0px" y="0px"
	 viewBox="0 0 26 26" style="enable-background:new 0 0 26 26;" xml:space="preserve">
<style type="text/css">
	.st0{fill:#FFFFFF;}
</style>
<g>
	<path class="st0" d="M20,7c-0.6,0-1-0.4-1-1V4c0-0.6,0.4-1,1-1h2c0.6,0,1,0.4,1,1v2c0,0.6-0.4,1-1,1H20z"/>
	<path class="st0" d="M13,9.2c-0.7,0-1.4,0.2-2,0.6c0.2-0.1,0.4-0.1,0.6-0.1c1.1,0,1.9,0.9,1.9,1.9c0,1.1-0.9,1.9-1.9,1.9
		s-1.9-0.9-1.9-1.9c0-0.2,0-0.4,0.1-0.6c-0.4,0.6-0.6,1.2-0.6,2c0,2.1,1.7,3.8,3.8,3.8c2.1,0,3.8-1.7,3.8-3.8S15.1,9.2,13,9.2z"/>
	<g>
		<path class="st0" d="M13,7c3.3,0,6,2.7,6,6s-2.7,6-6,6c-3.3,0-6-2.7-6-6S9.7,7,13,7 M13,5c-4.4,0-8,3.6-8,8s3.6,8,8,8s8-3.6,8-8
			S17.4,5,13,5L13,5z"/>
	</g>
	<path class="st0" d="M21.1,0H4.9C2.2,0,0,2.2,0,4.9v16.3C0,23.8,2.2,26,4.9,26h16.3c2.7,0,4.9-2.2,4.9-4.9V4.9
		C26,2.2,23.8,0,21.1,0z M24,9h-6.5c1,1.1,1.5,2.5,1.5,4c0,3.3-2.7,6-6,6c-3.3,0-6-2.7-6-6c0-1.5,0.6-2.9,1.5-4H2V4.9
		C2,3.3,3.3,2,4.9,2h16.3C22.7,2,24,3.3,24,4.9V9z"/>
</g>
</svg>
