<?xml version="1.0" encoding="utf-8"?>
<!-- Generator: Adobe Illustrator 20.1.0, SVG Export Plug-In . SVG Version: 6.00 Build 0)  -->
<svg version="1.1" id="Capa_1" xmlns="http://www.w3.org/2000/svg" xmlns:xlink="http://www.w3.org/1999/xlink" x="0px" y="0px"
	 viewBox="0 0 510 510" style="enable-background:new 0 0 510 510;" xml:space="preserve">
<style type="text/css">
	.st0{fill:#FFFFFF;}
</style>
<g>
	<g id="post-pinterest">
		<path class="st0" d="M459,0H51C23,0,0,23,0,51v408c0,28,23,51,51,51h408c28,0,51-23,51-51V51C510,23,487,0,459,0z M280.5,362.1
			c-20.4,0-40.8-7.6-53.6-22.9l-25.5,81.6l-2.6,5.1l0,0c-5.1,7.6-12.8,12.8-22.9,12.8c-15.3,0-28.1-12.8-28.1-28c0-2.5,0-2.5,0-2.5
			l0,0l2.6-5.1l45.9-142.8c0,0-5.1-15.3-5.1-38.3c0-43.4,22.9-56.1,43.4-56.1c17.9,0,35.7,7.6,35.7,33.1c0,33.1-22.9,51-22.9,76.5
			c0,17.9,15.3,33.1,33.2,33.1c58.6,0,81.6-45.9,81.6-86.7c0-56.1-48.4-102-107.1-102c-58.6,0-107.1,45.9-107.1,102
			c0,17.9,5.1,33.2,12.8,48.4c2.6,5.1,2.6,7.6,2.6,12.8c0,15.3-10.2,25.5-25.5,25.5c-10.2,0-17.8-5.1-22.9-12.8
			c-12.8-23-20.4-48.4-20.4-76.5c0-84.1,71.4-153,158.1-153s158.1,68.9,158.1,153C413.1,290.7,372.3,362.1,280.5,362.1z"/>
	</g>
</g>
</svg>
